<?xml version="1.0" encoding="utf-8"?>
<!-- Generator: Adobe Illustrator 23.0.1, SVG Export Plug-In . SVG Version: 6.00 Build 0)  -->
<svg version="1.1" id="Calque_1" xmlns="http://www.w3.org/2000/svg" xmlns:xlink="http://www.w3.org/1999/xlink" x="0px" y="0px"
	 viewBox="0 0 432 432" style="enable-background:new 0 0 432 432;" xml:space="preserve">
<style type="text/css">
	.st0{fill:#768769;}
	.st1{fill:#FE1D0F;}
	.st2{fill:#E8DE23;}
	.st3{fill:#01A5EE;}
	.st4{fill:#1A1A1A;}
	.st5{fill:#A84B3D;}
	.st6{fill:#A29D3E;}
	.st7{fill:#E3B550;}
	.st8{fill:#EC904F;}
	.st9{fill:#A29E35;}
	.st10{fill:#E4B646;}
	.st11{fill:#EE9047;}
	.st12{fill:#65C8D0;}
	.st13{fill:#5C9B62;}
	.st14{fill:#F06BA4;}
	.st15{fill:#E5C81F;}
	.st16{fill:#FBB03B;}
	.st17{fill:#F9CC3D;}
	.st18{fill:#9DA89F;}
	.st19{fill:#EDB23B;}
	.st20{fill:#D38E44;}
	.st21{fill:#333333;}
	.st22{fill:#BF8292;}
	.st23{fill:#D8B2BE;}
	.st24{fill:#6E8D71;}
	.st25{fill:#FF9708;}
	.st26{fill:#D08D85;}
	.st27{fill:#F7931E;}
	.st28{fill:#AF8E9C;}
	.st29{fill:#E0879F;}
	.st30{fill:#BA9BC9;}
	.st31{fill:#D18BAC;}
	.st32{fill:#C69C6D;}
	.st33{fill:#69786B;}
	.st34{fill:#A4BAB6;}
	.st35{fill:#736357;}
	.st36{fill:#603D41;}
	.st37{fill:#AA4A3A;}
	.st38{fill:#AA6739;}
	.st39{fill:#BC825B;}
	.st40{fill:#CC8C60;}
	.st41{fill:#DD852D;}
	.st42{fill:#C9885D;}
	.st43{fill:#998675;}
	.st44{fill:#B7835F;}
	.st45{fill:#ABA79E;}
	.st46{fill:#A7A7A7;}
	.st47{fill:#534741;}
	.st48{fill:#C1272D;}
	.st49{fill:#DDA57F;}
	.st50{fill:#A8704A;}
	.st51{fill:#D3844F;}
	.st52{fill:#86A54A;}
	.st53{fill:#C7B299;}
	.st54{fill:#D8A96A;}
	.st55{fill:#9BB28A;}
	.st56{fill:#8CC63F;}
	.st57{fill:#B3B3B3;}
	.st58{fill:#CE955B;}
	.st59{fill:#CCCCCC;}
	.st60{fill:#9E85C1;}
	.st61{fill:#AE7418;}
	.st62{fill:#B23F47;}
	.st63{fill:#8BAF51;}
	.st64{fill:#D38537;}
	.st65{fill:#CE8B49;}
	.st66{fill:#55A55D;}
	.st67{fill:#D8BB60;}
	.st68{fill:#58A05F;}
	.st69{fill:#D8924C;}
	.st70{fill:#856DAA;}
	.st71{fill:#C98847;}
	.st72{fill:#DB8B3B;}
	.st73{fill:#E5A857;}
	.st74{fill:#8158A5;}
	.st75{fill:#DB8D40;}
	.st76{fill:#93BA56;}
	.st77{fill:#A484A4;}
	.st78{fill:#96BC5B;}
	.st79{fill:#DDC06F;}
	.st80{fill:#89373D;}
	.st81{fill:#5C9962;}
</style>
<g>
	<g>
		<g>
			<path class="st4" d="M157.19,79.889c-0.073,2.849,0,5.608,0.219,8.274c0.219,2.667,0.419,5.352,0.603,8.056
				c0.109,1.206,0.182,2.41,0.219,3.615c0.035,1.206,0.091,2.43,0.164,3.672c0,0.365-0.019,0.639-0.055,0.822
				c-0.037,0.695-0.439,1.096-1.206,1.206c-0.731,0.073-1.452,0.127-2.165,0.165c-0.712,0.036-1.434,0.072-2.164,0.109
				c-1.169,0.036-1.918-0.529-2.247-1.7c-0.037-0.181-0.064-0.356-0.082-0.52c-0.019-0.163-0.028-0.337-0.028-0.52
				c-0.183-2.849-0.365-5.689-0.548-8.521c-0.183-2.831-0.329-5.671-0.438-8.521c-0.11-2.63-0.192-5.233-0.247-7.809
				c-0.055-2.575-0.119-5.178-0.192-7.808v-0.822c-0.037-0.439-0.119-0.731-0.246-0.877c-0.129-0.145-0.43-0.219-0.904-0.219
				c-0.622-0.036-1.215-0.055-1.781-0.055c-0.567,0-1.16-0.017-1.781-0.054c-0.183,0-0.375-0.018-0.576-0.055
				c-0.201-0.036-0.392-0.09-0.575-0.163c-0.219-0.073-0.329-0.238-0.329-0.494c0-0.255,0.091-0.419,0.274-0.493
				c0.255-0.145,0.584-0.255,0.986-0.329c0.292-0.036,0.566-0.044,0.822-0.026c0.255,0.018,0.529,0.026,0.822,0.026l15.124,0.165
				c0.183,0,0.383,0.01,0.603,0.028c0.219,0.019,0.419,0.064,0.603,0.137c0.292,0.073,0.474,0.238,0.548,0.493
				c0.073,0.293-0.092,0.585-0.493,0.877c-0.219,0.109-0.448,0.163-0.685,0.163c-0.239,0-0.466,0-0.685,0h-3.123
				c-0.439,0-0.658,0.22-0.658,0.659v1.041c0.036,1.643,0.073,3.26,0.11,4.849C157.116,76.848,157.153,78.391,157.19,79.889z"/>
			<path class="st4" d="M186.944,69.478c0.912,1.718,1.561,3.772,1.945,6.165c0.383,2.393,0.548,4.886,0.493,7.48
				c-0.055,2.594-0.311,5.178-0.767,7.754c-0.457,2.575-1.051,4.868-1.781,6.876c-1.06,2.886-2.301,4.959-3.726,6.22
				c-1.425,1.26-2.896,1.881-4.411,1.863c-1.516-0.019-3.033-0.594-4.548-1.727c-1.516-1.131-2.886-2.648-4.109-4.547
				c-1.225-1.899-2.229-4.091-3.014-6.576c-0.786-2.484-1.233-5.077-1.343-7.781c-0.109-2.703,0.192-5.442,0.904-8.22
				c0.713-2.775,1.981-5.405,3.808-7.89c0.95-1.316,2.055-2.302,3.316-2.959c1.26-0.657,2.658-1.077,4.192-1.261
				c1.936-0.219,3.68,0.047,5.233,0.794C184.688,66.417,185.957,67.688,186.944,69.478z M186.013,94.3
				c1.168-3.981,1.753-7.662,1.753-11.041s-0.356-6.284-1.069-8.713c-0.712-2.429-1.653-4.283-2.822-5.563
				c-1.169-1.278-2.356-1.798-3.562-1.561c-1.206,0.238-2.293,1.315-3.26,3.233c-0.969,1.918-1.599,4.868-1.891,8.85
				c-0.183,2.739-0.174,5.424,0.028,8.054c0.2,2.631,0.557,5.006,1.069,7.124c0.511,2.119,1.132,3.863,1.863,5.233
				c0.73,1.37,1.534,2.147,2.411,2.328c0.877,0.184,1.781-0.328,2.712-1.534C184.177,99.506,185.099,97.369,186.013,94.3z"/>
			<path class="st4" d="M219.164,72.272c-0.183,0.073-0.274,0.173-0.274,0.302c0,0.127,0,0.246,0,0.356
				c-0.074,2.521-0.137,5.013-0.192,7.48c-0.055,2.465-0.028,4.959,0.082,7.48c0.073,2.411,0.137,4.795,0.192,7.15
				c0.055,2.357,0.118,4.741,0.192,7.152c0.035,0.584,0.035,1.206,0,1.863c-0.11,0.657-0.457,1.041-1.041,1.15
				c-0.694,0.075-1.379,0.137-2.055,0.192c-0.677,0.054-1.361,0.01-2.055-0.137c-0.585-0.073-0.987-0.237-1.206-0.493
				c-0.219-0.256-0.348-0.694-0.384-1.316c-0.073-1.206-0.136-2.411-0.192-3.617c-0.055-1.206-0.119-2.41-0.192-3.615
				c-0.079-2.119-0.188-4.22-0.327-6.302c-0.139-2.083-0.267-4.183-0.385-6.302c-0.109-1.863-0.174-3.726-0.192-5.589
				c-0.019-1.863-0.046-3.726-0.082-5.589c0-0.768,0-1.535,0-2.302s0.018-1.535,0.055-2.302c0-0.219,0.008-0.447,0.028-0.685
				c0.018-0.237,0.045-0.483,0.082-0.739c0.109-0.621,0.474-0.968,1.096-1.042c0.73-0.072,1.452-0.082,2.165-0.026
				c0.712,0.054,1.433,0.155,2.164,0.3c0.439,0.111,0.822,0.385,1.151,0.822c0.292,0.403,0.603,0.859,0.932,1.37
				c0.767,1.279,1.58,2.53,2.439,3.754c0.858,1.225,1.726,2.421,2.603,3.589c0.767,1.06,1.534,2.091,2.301,3.096
				c0.767,1.005,1.516,2.037,2.247,3.096c0.291,0.365,0.52,0.548,0.685,0.548c0.165,0,0.356-0.165,0.576-0.494
				c1.57-2.191,3.123-4.392,4.658-6.602c1.534-2.21,2.995-4.466,4.384-6.768c0.146-0.219,0.274-0.429,0.384-0.63
				c0.109-0.201,0.237-0.411,0.383-0.63c0.73-0.95,1.607-1.406,2.63-1.37c0.62,0,1.214,0,1.781,0c0.566,0,1.159,0.019,1.781,0.055
				c0.657,0,1.042,0.383,1.151,1.15c0.145,0.695,0.264,1.38,0.356,2.055c0.091,0.675,0.118,1.379,0.082,2.109
				c0,1.242,0,2.475,0,3.698c0,1.225-0.037,2.476-0.109,3.754c-0.219,5.589-0.274,11.178-0.164,16.768
				c0.035,1.424,0.035,2.849,0,4.274c-0.037,1.424-0.055,2.831-0.055,4.219c0,0.475-0.064,0.959-0.192,1.452
				c-0.128,0.493-0.466,0.685-1.014,0.576c-1.315,0-2.393,0.073-3.233,0.219c-0.841,0.145-1.526,0.155-2.055,0.028
				c-0.53-0.129-0.941-0.493-1.233-1.096c-0.293-0.602-0.512-1.671-0.657-3.206c-0.147-1.351-0.238-2.694-0.274-4.028
				c-0.037-1.333-0.055-2.676-0.055-4.028c0-2.41,0-4.795,0-7.15s0.036-4.741,0.109-7.15c0-1.206,0.046-2.411,0.137-3.617
				c0.091-1.206,0.173-2.411,0.246-3.617c-0.219-0.073-0.374-0.028-0.465,0.137c-0.091,0.163-0.173,0.3-0.246,0.411
				c-1.057,1.863-2.195,3.635-3.415,5.315c-1.221,1.68-2.468,3.379-3.743,5.096c-0.693,0.913-1.231,1.379-1.612,1.397
				c-0.383,0.019-0.939-0.411-1.667-1.287c-0.219-0.255-0.428-0.52-0.628-0.794c-0.201-0.274-0.41-0.557-0.629-0.85l-6.721-8.876
				c-0.037-0.073-0.082-0.111-0.137-0.111S219.237,72.308,219.164,72.272z"/>
			<path class="st4" d="M261.796,84.328c0.438-0.183,0.776-0.411,1.014-0.685c0.237-0.274,0.466-0.538,0.685-0.794
				c0.584-0.657,1.124-1.351,1.617-2.083c0.493-0.73,0.941-1.48,1.343-2.246c0.913-1.607,1.808-3.196,2.685-4.767
				c0.877-1.571,1.589-3.233,2.137-4.987c0.182-0.475,0.419-0.84,0.712-1.096c0.292-0.255,0.694-0.383,1.206-0.383
				c0.731,0,1.433-0.008,2.11-0.028c0.676-0.018,1.361-0.044,2.055-0.082c0.292,0,0.493,0.019,0.603,0.055
				c0.84,0.073,1.397,0.238,1.671,0.493c0.274,0.256,0.411,0.786,0.411,1.589c0.073,4.822-0.229,9.16-0.904,13.015
				c-0.676,3.853-1.589,7.224-2.74,10.11c-1.15,2.886-2.475,5.297-3.972,7.233c-1.498,1.936-3.033,3.416-4.603,4.438
				c-1.572,1.024-3.124,1.59-4.658,1.7c-1.534,0.109-2.896-0.238-4.082-1.041c-1.188-0.804-2.156-2.046-2.905-3.727
				c-0.749-1.679-1.123-3.798-1.123-6.356c0-0.329,0.055-0.657,0.164-0.987c0.073-0.145,0.183-0.274,0.329-0.383
				c0.146-0.109,0.31-0.127,0.493-0.054c0.109,0.036,0.228,0.109,0.356,0.219c0.127,0.109,0.21,0.201,0.246,0.274
				c0.036,0.293,0.063,0.567,0.082,0.822c0.018,0.256,0.027,0.512,0.027,0.767c0.475,3.252,1.132,5.408,1.973,6.467
				c0.84,1.06,1.744,1.325,2.712,0.794c0.968-0.529,1.963-1.7,2.987-3.507c1.022-1.808,1.945-3.954,2.767-6.439
				c0.822-2.483,1.488-5.15,2-8c0.511-2.85,0.767-5.57,0.767-8.165c-0.329,0.073-0.54,0.228-0.63,0.466
				c-0.091,0.238-0.192,0.447-0.301,0.63c-0.658,1.096-1.316,2.192-1.973,3.287c-0.657,1.096-1.407,2.137-2.246,3.124
				c-0.256,0.293-0.512,0.576-0.767,0.85c-0.256,0.274-0.53,0.52-0.822,0.739c-0.841,0.731-1.772,1.133-2.795,1.206
				c-1.023,0.073-2.009-0.145-2.959-0.657c-0.841-0.475-1.572-1.041-2.192-1.698c-0.622-0.657-1.17-1.388-1.644-2.192
				c-0.438-0.73-0.813-1.48-1.123-2.246c-0.311-0.767-0.575-1.57-0.794-2.411c-0.804-2.995-1.279-5.954-1.425-8.878
				c-0.109-1.278,0.018-2.118,0.383-2.521c0.365-0.401,1.206-0.638,2.521-0.712c0.803-0.036,1.597-0.046,2.383-0.028
				c0.785,0.019,1.58,0.064,2.383,0.137c0.84,0.073,1.388,0.246,1.644,0.52c0.255,0.274,0.401,0.814,0.438,1.617
				c0.036,1.023,0.046,2.028,0.028,3.013c-0.019,0.987-0.028,1.992-0.028,3.015c0.036,1.607,0.165,3.178,0.383,4.712
				c0.219,1.535,0.511,3.069,0.877,4.603c0.073,0.183,0.155,0.375,0.247,0.576C261.64,83.843,261.722,84.072,261.796,84.328z"/>
		</g>
		<g>
			<g>
				<path class="st4" d="M227.742,195.448c0.362-0.685,0.771-1.35,1.079-2.059c1.386-3.188,2.801-6.365,4.097-9.59
					c1.922-4.784,3.74-9.61,5.629-14.408c0.31-0.789,0.388-1.551,0.321-2.394c-0.6-7.562-0.43-15.081,1.482-22.477
					c1.249-4.833,3.674-9.036,7.058-12.675c2.966-3.19,6.63-4.883,11.035-4.868c2.722,0.009,5.143,0.893,7.3,2.505
					c3.74,2.795,5.711,6.651,6.53,11.156c0.506,2.785,0.332,5.53-0.691,8.193c-0.126,0.327-0.257,0.658-0.433,0.959
					c-0.419,0.716-1.075,0.985-1.777,0.765c-0.69-0.217-0.912-0.615-0.774-1.597c0.527-3.76,0.093-7.406-1.264-10.945
					c-0.677-1.765-1.575-3.419-2.854-4.816c-0.679-0.742-1.442-1.452-2.289-1.985c-1.797-1.13-3.723-1.227-5.539-0.066
					c-1.007,0.644-1.976,1.425-2.765,2.318c-2.754,3.121-4.257,6.893-5.303,10.856c-1.357,5.139-1.722,10.397-1.749,15.691
					c-0.074,14.412,4.337,27.436,12.214,39.372c0.876,1.327,1.917,2.584,3.063,3.684c1.768,1.697,2.679,1.475,3.826-0.707
					c1.129-2.147,1.529-4.501,1.863-6.864c0.246-1.741,0.428-3.491,0.657-5.235c0.124-0.943,0.052-1.839-0.235-2.766
					c-2.596-8.388-2.299-16.645,1.241-24.729c1.691-3.861,4.2-7.041,7.86-9.216c2.612-1.552,5.418-2.396,8.499-2.165
					c4.54,0.34,8.996,4.081,9.996,8.478c0.53,2.328,0.272,4.596-0.862,6.714c-0.403,0.753-0.863,1.507-1.437,2.133
					c-4.227,4.613-9.439,7.101-15.746,7.099c-0.927,0-1.855-0.219-2.873-0.348c-0.042,0.209-0.137,0.456-0.133,0.701
					c0.112,6.607,1.988,12.621,6.086,17.867c1.045,1.337,2.309,2.448,3.834,3.219c0.554,0.281,1.145,0.502,1.738,0.692
					c1.784,0.572,3.384,0.248,4.792-1.02c1.658-1.492,2.914-3.28,3.757-5.323c1.298-3.148,2.26-6.406,2.891-9.757
					c0.13-0.69,0.3-1.373,0.466-2.056c0.17-0.7,0.619-1.152,1.288-1.408c0.907-0.346,2.116,0.003,1.973,1.327
					c-0.125,1.162-0.273,2.323-0.458,3.477c-0.579,3.612-1.679,7.062-3.274,10.355c-1.106,2.283-2.573,4.286-4.557,5.887
					c-3.674,2.965-7.801,3.357-12.182,2.055c-3.176-0.944-5.904-2.651-8.153-5.101c-0.211-0.23-0.422-0.461-0.644-0.681
					c-0.047-0.047-0.141-0.048-0.283-0.091c-0.157,0.805-0.256,1.619-0.479,2.398c-0.44,1.536-0.887,3.076-1.449,4.57
					c-0.498,1.324-1.287,2.51-2.304,3.506c-2.526,2.474-5.466,3.226-8.826,1.984c-2.868-1.06-5.123-2.975-7.071-5.268
					c-1.907-2.244-3.453-4.734-4.781-7.359c-3.172-6.268-5.623-12.795-7.044-19.69c-0.046-0.223-0.139-0.435-0.268-0.829
					c-0.196,0.469-0.334,0.77-0.451,1.08c-2.182,5.815-4.333,11.643-6.562,17.44c-0.557,1.45-1.312,2.833-2.074,4.192
					c-0.586,1.045-1.504,1.791-2.648,2.216c-1.548,0.573-3.047,0.454-4.305-0.623c-0.849-0.727-1.612-1.6-2.246-2.522
					c-1.951-2.838-3.095-6.037-3.908-9.357c-0.877-3.581-1.365-7.227-1.436-10.907c-0.112-5.785-0.186-11.573-0.131-17.359
					c0.029-3.083,0.362-6.164,0.558-9.246c0.036-0.57,0.071-1.139,0.121-1.952c-2.045,1.207-3.884,2.293-5.82,3.435
					c0.113,0.789,0.238,1.588,0.342,2.39c0.741,5.749,0.138,11.391-1.4,16.949c-0.973,3.514-2.6,6.698-4.998,9.46
					c-2.141,2.466-4.722,4.318-7.815,5.42c-1.931,0.688-3.889,0.8-5.88,0.276c-4.165-1.097-6.979-4.646-7.12-9.117
					c-0.126-3.971,1.099-7.54,3.434-10.739c1.464-2.005,3.223-3.74,5.166-5.259c3.017-2.36,6.114-4.618,9.177-6.918
					c0.308-0.232,0.621-0.457,0.968-0.711c-1.097-4.959-2.711-9.665-5.412-13.946c-0.881-1.396-1.963-2.628-3.312-3.611
					c-2.268-1.653-4.597-1.763-7.014-0.338c-1.645,0.97-2.975,2.282-4.125,3.782c-2.735,3.568-4.401,7.635-5.45,11.968
					c-1.133,4.678-1.367,9.422-0.99,14.214c0.439,5.582,1.361,11.09,2.497,16.563c1.597,7.694,3.685,15.262,5.931,22.788
					c0.435,1.459,0.969,2.889,1.387,4.352c0.554,1.939-0.215,4.478-2.481,5.331c-1.885,0.71-3.765,0.087-4.707-1.702
					c-0.453-0.86-0.808-1.778-1.144-2.693c-4.002-10.867-7.275-21.945-9.553-33.305c-1.276-6.362-2.32-12.763-2.948-19.226
					c-0.143-1.472-0.313-2.942-0.497-4.658c-6.936,6.511-13.454,13.168-19.925,20.087c0.451,0.33,0.839,0.625,1.238,0.904
					c3.922,2.739,7.612,5.747,10.878,9.258c3.458,3.718,6.16,7.876,7.511,12.82c0.792,2.899,1.163,5.831,0.431,8.804
					c-1.833,7.444-8.684,12.841-16.349,12.895c-10.07,0.071-18.234-6.986-19.561-16.964c-0.569-4.281,0.172-8.41,1.697-12.418
					c1.356-3.564,3.18-6.876,5.378-9.986c0.271-0.383,0.543-0.765,0.808-1.152c0.042-0.061,0.054-0.142,0.124-0.336
					c-0.302-0.226-0.627-0.487-0.968-0.723c-4.147-2.87-8.315-5.709-12.438-8.611c-3.523-2.48-6.886-5.155-9.767-8.391
					c-2.302-2.585-4.351-5.341-5.657-8.571c-1.825-4.517-2.378-9.138-0.845-13.86c2.178-6.708,8.94-11.649,15.901-11.626
					c2.291,0.008,4.509,0.46,6.618,1.366c8.433,3.624,13.373,10.017,14.98,19.012c0.275,1.541,0.325,3.109,0.062,4.672
					c-0.109,0.644-0.3,1.22-0.937,1.526c-0.907,0.437-1.713-0.012-1.691-0.991c0.098-4.26-1.152-8.175-3.065-11.905
					c-2.041-3.98-5.095-6.983-9.031-9.098c-1.636-0.879-3.368-1.488-5.208-1.706c-2.998-0.355-5.692,0.425-7.881,2.532
					c-3.823,3.681-4.892,8.168-3.461,13.212c1.03,3.629,3.058,6.739,5.465,9.615c2.782,3.323,6.015,6.144,9.564,8.606
					c4.24,2.942,8.504,5.848,12.759,8.767c0.158,0.109,0.331,0.196,0.52,0.307c0.216-0.207,0.419-0.386,0.606-0.581
					c6.897-7.21,14.078-14.127,21.465-20.831c0.513-0.466,0.576-0.931,0.573-1.54c-0.013-3.204-0.047-6.41,0.045-9.611
					c0.034-1.194,0.277-2.414,0.625-3.561c0.562-1.856,1.937-2.725,3.813-2.626c1.392,0.073,2.374,0.76,2.79,2.106
					c0.251,0.814,0.431,1.675,0.475,2.524c0.196,3.788,0.329,7.578,0.493,11.368c0.033,0.768,0.099,1.535,0.361,2.319
					c0.112-0.422,0.227-0.843,0.335-1.266c1.107-4.314,2.718-8.413,5.415-11.993c1.003-1.332,2.136-2.628,3.427-3.67
					c4.594-3.707,9.663-4.173,14.933-1.635c4.061,1.955,7.076,5.097,9.338,8.971c1.267,2.169,2.218,4.479,3.003,6.86
					c0.11,0.332,0.225,0.662,0.366,1.074c0.347-0.17,0.66-0.305,0.957-0.471c1.671-0.936,3.316-1.922,5.017-2.8
					c0.785-0.405,1.118-0.916,1.225-1.792c0.219-1.781,0.546-3.552,0.91-5.31c0.148-0.715,0.428-1.43,0.783-2.07
					c0.945-1.704,2.94-2.384,4.758-1.686c1.215,0.467,1.941,1.38,1.981,2.658c0.053,1.675,0.093,3.373-0.116,5.029
					c-1.381,10.931-1.725,21.898-1.369,32.9c0.125,3.87,0.172,7.747,0.791,11.576c0.354,2.193,0.873,4.362,1.394,6.523
					c0.198,0.822,0.612,1.591,0.928,2.384C227.547,195.47,227.644,195.459,227.742,195.448z M140.325,178.543
					c-0.279,0.347-0.485,0.576-0.661,0.826c-2.15,3.053-3.833,6.346-5.023,9.886c-1.161,3.456-1.637,6.974-1.065,10.615
					c0.955,6.079,6.315,12.76,14.03,13.157c3.669,0.189,6.464-1.089,8.213-4.431c1.411-2.697,1.856-5.53,1.352-8.516
					c-0.673-3.986-2.453-7.469-4.923-10.621c-1.985-2.531-4.259-4.789-6.736-6.832C143.828,181.239,142.085,179.925,140.325,178.543
					z M203.23,155.973c-0.408,0.223-0.695,0.337-0.934,0.515c-2.44,1.822-4.95,3.562-7.279,5.518
					c-1.543,1.296-2.941,2.813-4.195,4.396c-2.13,2.688-3.16,5.818-3.023,9.271c0.073,1.853,0.71,3.521,2.025,4.867
					c1.972,2.019,4.807,2.161,6.959,0.375c1.535-1.274,2.667-2.859,3.422-4.689C202.858,169.793,203.93,163.116,203.23,155.973z
					 M274.989,172.761c0.567,0.108,0.945,0.209,1.33,0.249c4.691,0.492,8.672-1.072,12.073-4.239
					c1.319-1.228,2.133-2.77,2.567-4.518c0.803-3.237-0.344-6.303-2.959-8.001c-1.332-0.865-2.663-0.974-4.095-0.266
					c-1.583,0.783-2.815,1.949-3.833,3.364c-2.462,3.418-3.923,7.257-4.754,11.358C275.188,171.347,275.11,171.998,274.989,172.761z
					"/>
			</g>
			<g>
				<path class="st4" d="M229.399,124.317c-0.027,2.957-1.502,4.997-4.183,5.785c-2.712,0.796-5.389-0.19-6.924-2.594
					c-0.924-1.447-1.508-3.019-1.178-4.764c0.126-0.67,0.384-1.369,0.768-1.927c2.154-3.125,7.121-3.526,9.79-0.834
					C228.862,121.182,229.404,122.641,229.399,124.317z"/>
			</g>
		</g>
	</g>
	<g>
		<g>
			<g>
				<g>
					<path class="st11" d="M304.726,215.531c1.76-6.867-1.72-6.71-5.44-3.403c-9.288,8.225-10.598,24.394-6.683,25.175
						C296.688,238.122,303.691,219.536,304.726,215.531z"/>
				</g>
				<g>
					<path class="st11" d="M309.437,234.777c-10.866,7.967-16.312,21.68-4.736,14.442c2.78-1.747,6.262-4.305,10.096-7.119
						c8.469-6.181,14.212-10.337,13.351-12.536C327.232,227.214,318.238,228.346,309.437,234.777z"/>
				</g>
				<g>
					<path class="st11" d="M309.331,264.159c3.731,0.698,17.6,2.256,21.409,2.403c8.306,0.299,5.921-3.53,2.033-6.086
						C317.799,250.571,293.777,261.207,309.331,264.159z"/>
				</g>
			</g>
			<g>
				<g>
					<path class="st11" d="M133.424,254.717c0.769-0.951-0.3-3.35-3.127-6.152c-12.77-12.723-34.684-11.008-34.626-6.903
						c0.026,2.411,7.621,3.892,18.495,7.631C125.024,253.069,131.915,256.596,133.424,254.717z"/>
				</g>
				<g>
					<path class="st11" d="M118.924,266.757c-11.407,1.098-16.611,10.725,0.864,9.033
						C137.379,274.128,130.214,265.684,118.924,266.757z"/>
				</g>
				<g>
					<path class="st11" d="M129.787,286.323c-18.359-1.55-34.55,20.049-19.252,14.751c2.919-1.02,17.565-7.087,20.349-8.429
						C138.447,288.973,134.629,286.718,129.787,286.323z"/>
				</g>
			</g>
		</g>
		<g>
			<g>
				<path class="st4" d="M265.712,250.609c0.877,0.454,1.783,0.886,2.654,1.38c1.87,1.061,3.455,2.442,4.601,4.284
					c1.009,1.622,1.582,3.368,1.373,5.318c0.337,0.176,0.621,0.319,0.9,0.471c0.63,0.342,1.266,0.673,1.883,1.037
					c2.043,1.203,3.194,2.928,3.157,5.369c-0.034,2.26-0.025,4.52-0.039,6.78c-0.007,1.173-0.023,2.345-0.037,3.68
					c0.491-0.215,0.843-0.361,1.188-0.522c3.278-1.531,6.687-2.573,10.316-2.827c10.195-0.714,19.213,5.225,22.773,13.934
					c1.576,3.855,2.213,7.864,2.188,11.988c-0.062,9.818-3.41,18.571-9.009,26.477c-4.497,6.35-10.076,11.67-16.509,16.064
					c-6.465,4.416-13.685,6.563-21.458,6.774c-4.47,0.121-8.773-0.849-12.792-2.882c-1.408-0.712-2.785-1.484-4.176-2.229
					c-0.568-0.304-1.136-0.608-1.739-0.931c-0.242,0.185-0.471,0.351-0.69,0.529c-1.867,1.515-3.739,3.023-5.593,4.552
					c-0.829,0.684-1.643,1.388-2.425,2.125c-0.818,0.772-1.201,1.761-1.287,2.88c-0.098,1.288-0.197,2.578-0.348,3.86
					c-0.092,0.781-0.249,1.558-0.434,2.323c-0.649,2.686-2.415,4.399-4.967,5.197c-1.558,0.487-3.218,0.756-4.85,0.871
					c-1.925,0.136-3.877,0.107-5.803-0.037c-7.84-0.587-15.669-1.33-23.441-2.522c-5.389-0.827-10.746-1.865-16.105-2.873
					c-1.941-0.365-3.797-1.051-5.56-1.969c-2.911-1.516-4.381-3.939-4.524-7.179c-0.051-1.145-0.01-2.296,0.035-3.443
					c0.07-1.749-0.469-3.216-1.756-4.446c-11.745-11.224-18.551-25.175-22.422-40.734c-1.365-5.484-1.973-11.081-2.414-16.701
					c-0.576-7.341,0.006-14.63,0.982-21.899c0.325-2.417,0.701-4.829,1.142-7.228c0.2-1.086,0.564-2.151,0.944-3.193
					c0.669-1.832,1.918-3.189,3.668-4.044c0.537-0.263,0.816-0.556,0.857-1.194c0.077-1.197,0.729-2.156,1.513-3.022
					c1.209-1.334,2.726-2.199,4.376-2.862c2.443-0.981,4.999-1.234,7.603-1.186c0.215,0.004,0.431,0.018,0.646,0.006
					c1.053-0.057,1.332-0.288,1.438-1.348c0.157-1.574,0.344-3.134,0.876-4.641c0.863-2.445,2.409-4.297,4.69-5.528
					c2.353-1.27,4.893-1.874,7.544-1.908c1.644-0.021,3.297,0.112,4.936,0.278c1.124,0.114,2.009-0.094,2.774-0.998
					c1.14-1.346,2.69-2.14,4.296-2.783c1.096-0.438,2.232-0.791,3.37-1.107c2.445-0.679,4.376-2.103,5.99-4.008
					c0.603-0.712,1.149-1.473,1.771-2.167c2.422-2.703,5.251-4.769,8.876-5.563c1.101-0.241,2.205-0.285,3.314-0.109
					c0.316,0.05,0.636,0.13,0.928,0.256c0.825,0.357,1.268,1.205,0.242,1.874c-1.934,1.259-2.119,4.161-0.731,6.047
					c0.783,1.063,1.732,1.905,2.886,2.532c2.291,1.245,4.756,2.014,7.282,2.571c4.589,1.012,9.194,1.949,13.788,2.935
					c4.118,0.884,8.126,2.095,11.862,4.09c2.559,1.367,4.839,3.09,6.644,5.384c2.033,2.585,3.261,5.489,3.21,8.823
					C266.101,248.316,265.862,249.412,265.712,250.609z M214.217,362.05c4.899,0.426,9.796,0.88,14.699,1.263
					c1.86,0.145,3.725,0.068,5.577-0.259c1.206-0.213,2.033-0.841,2.518-1.944c0.158-0.36,0.361-0.721,0.421-1.102
					c0.217-1.378,0.498-2.76,0.541-4.148c0.086-2.771,1.288-4.886,3.484-6.476c2.676-1.938,5.338-3.883,7.675-6.244
					c0.971-0.981,2.241-1.273,3.59-0.927c0.935,0.24,1.864,0.53,2.76,0.886c1.232,0.489,2.436,1.053,3.644,1.602
					c2.333,1.06,4.758,1.842,7.289,2.213c7.397,1.082,14.349-0.342,20.891-3.877c4.242-2.293,7.824-5.431,11.221-8.817
					c5.893-5.875,10.332-12.634,12.903-20.596c2.027-6.277,2.625-12.64,1.278-19.112c-1.397-6.708-5.132-11.681-11.373-14.65
					c-2.71-1.289-5.607-1.76-8.589-1.633c-3.305,0.141-6.433,1.028-9.421,2.427c-0.715,0.335-1.418,0.696-2.146,0.999
					c-2.309,0.961-4.148-0.194-4.242-2.687c-0.043-1.146,0.011-2.296,0.045-3.443c0.044-1.507,0.15-3.012,0.158-4.519
					c0.006-1.124-0.597-1.522-1.594-1.091c-1.338,0.579-2.74,0.877-4.18,0.919c-4.41,0.128-8.822,0.308-13.233,0.29
					c-7.682-0.032-15.359-0.332-23.024-0.856c-6.947-0.475-13.896-0.943-20.836-1.51c-4.113-0.336-8.217-0.806-12.313-1.31
					c-4.845-0.595-9.679-1.275-14.514-1.948c-6.86-0.955-13.725-1.875-20.569-2.931c-3.871-0.597-7.7-1.426-10.89-3.983
					c-0.698-0.559-1.27-0.369-1.631,0.47c-0.309,0.717-0.531,1.49-0.665,2.261c-0.671,3.862-1.015,7.765-1.073,11.677
					c-0.055,3.693,0.02,7.393,0.198,11.083c0.259,5.379,0.872,10.724,1.974,16.005c2.273,10.897,6.83,20.824,12.79,30.156
					c2.518,3.943,5.331,7.672,8.555,11.058c2.106,2.212,2.953,4.673,2.378,7.664c-0.162,0.842-0.229,1.71-0.26,2.568
					c-0.073,2.007,0.755,3.574,2.523,4.537c1.034,0.563,2.115,1.127,3.245,1.407c2.572,0.638,5.175,1.179,7.788,1.619
					C199.242,360.343,206.691,361.492,214.217,362.05z M215.68,264.49c13.687,1.263,28.649,2.336,43.655,2.665
					c2.654,0.058,5.31,0.027,7.965,0.031c1.027,0.001,1.957-0.315,2.512-1.204c1.258-2.014,1.839-4.159,0.67-6.415
					c-0.473-0.913-1.075-1.785-1.746-2.565c-1.149-1.336-2.708-2.1-4.315-2.753c-3.528-1.434-7.22-2.088-11.003-2.35
					c-6.408-0.445-12.814-0.925-19.221-1.393c-3.116-0.228-6.21-0.616-9.282-1.207c-3.411-0.656-6.668-1.693-9.631-3.552
					c-0.344-0.216-0.779-0.436-0.62-0.878c0.116-0.322,0.476-0.722,0.782-0.775c0.574-0.1,1.216-0.077,1.779,0.079
					c0.929,0.257,1.816,0.663,2.723,1.001c3.635,1.357,7.437,1.945,11.272,2.156c5.767,0.317,11.546,0.42,17.319,0.647
					c3.476,0.137,6.962,0.133,10.406,0.76c0.838,0.152,1.719,0.198,2.567,0.127c1.404-0.119,1.873-0.771,1.727-2.17
					c-0.03-0.284-0.099-0.565-0.168-0.844c-0.371-1.512-0.992-2.917-1.82-4.233c-1.697-2.698-4.13-4.553-6.924-5.97
					c-3.416-1.733-7.059-2.804-10.799-3.554c-4.01-0.804-8.035-1.531-12.039-2.363c-2.704-0.562-5.372-1.281-7.919-2.383
					c-1.624-0.703-3.169-1.549-4.443-2.788c-2.358-2.294-3.474-4.976-2.391-8.279c0.033-0.102,0.065-0.206,0.081-0.311
					c0.125-0.815-0.214-1.163-0.946-0.812c-0.961,0.461-1.965,0.955-2.734,1.669c-1.094,1.016-2.118,2.158-2.948,3.396
					c-2.413,3.601-5.599,6.008-9.889,6.868c-0.386,0.077-0.779,0.153-1.146,0.292c-1.204,0.456-2.4,0.933-3.592,1.419
					c-0.229,0.093-0.449,0.238-0.633,0.403c-0.403,0.361-0.347,0.777,0.148,1.021c0.286,0.141,0.602,0.242,0.916,0.304
					c3.839,0.756,7.692,1.398,11.599,1.73c2.966,0.252,5.874,0.129,8.731-0.757c0.34-0.106,0.699-0.174,1.054-0.199
					c0.279-0.02,0.582,0.003,0.844,0.094c0.625,0.217,0.742,0.801,0.266,1.262c-0.15,0.146-0.343,0.277-0.541,0.34
					c-2.318,0.745-4.589,1.653-7.048,1.888c-4.944,0.473-9.817-0.108-14.671-0.956c-2.968-0.518-5.92-1.13-8.892-1.624
					c-2.685-0.447-5.359-0.37-7.981,0.476c-1.628,0.525-2.986,1.425-3.907,2.876c-1.038,1.636-1.619,3.433-1.623,5.39
					c-0.003,1.478,0.448,1.987,1.885,2.25c1.623,0.298,3.241,0.62,4.857,0.958c3.02,0.631,6.029,1.315,9.054,1.913
					c2.932,0.58,5.901,0.788,8.891,0.712c0.392-0.01,0.803-0.022,1.171,0.086c0.23,0.068,0.488,0.33,0.559,0.559
					c0.051,0.166-0.13,0.515-0.304,0.616c-0.327,0.19-0.721,0.35-1.093,0.365c-1.505,0.06-3.013,0.098-4.518,0.074
					c-4.332-0.071-8.547-0.97-12.758-1.876c-3.509-0.755-7.026-1.458-10.616-1.718c-1.835-0.133-3.659-0.106-5.465,0.249
					c-1.638,0.322-3.177,0.897-4.479,1.984c-1.899,1.585-2.093,3.033-1.165,5.266c0.15,0.362,0.376,0.693,0.567,1.039
					c0.348,0.628,0.775,1.225,1.027,1.889c0.58,1.526,1.786,2.191,3.255,2.487c1.229,0.248,2.475,0.418,3.718,0.595
					c5.009,0.712,10.018,1.425,15.03,2.114c3.52,0.484,7.051,0.889,10.566,1.401C200.788,262.995,207.589,263.835,215.68,264.49z"/>
			</g>
			<g>
				<path class="st4" d="M302.263,308.261c-0.379,3.737-1.481,7.69-3.329,11.429c-2.448,4.954-5.426,9.539-9.415,13.413
					c-2.132,2.07-4.562,3.703-7.249,4.965c-3.83,1.799-7.787,2.092-11.86,1.029c-3.107-0.811-6.096-1.877-8.656-3.918
					c-2.274-1.813-2.605-2.666-1.444-5.353c0.793-1.836,1.806-3.584,2.809-5.32c3.232-5.592,6.394-11.216,8.968-17.154
					c1.844-4.255,3.04-8.656,3.334-13.292c0.046-0.716,0.149-1.429,0.185-2.145c0.061-1.221,0.657-2.064,1.687-2.696
					c2.518-1.547,5.21-2.585,8.171-2.776c4.847-0.313,9.058,1.174,12.484,4.664c1.891,1.927,2.895,4.353,3.534,6.921
					C302.283,301.249,302.594,304.527,302.263,308.261z M297.031,307.363c0.239-3.394-0.005-6.755-0.971-10.017
					c-0.434-1.464-1.038-2.922-1.821-4.23c-1.612-2.694-4.07-3.986-7.241-3.668c-1.17,0.117-2.346,0.34-3.476,0.665
					c-2.614,0.752-4.19,2.421-4.615,5.212c-0.497,3.265-1.319,6.462-2.445,9.578c-1.911,5.287-4.52,10.231-7.353,15.064
					c-1.723,2.94-3.527,5.832-5.26,8.766c-0.454,0.768-0.835,1.591-1.147,2.426c-0.351,0.938-0.208,1.216,0.609,1.824
					c2.142,1.595,4.589,2.453,7.152,3.105c2.392,0.609,4.694,0.365,6.989-0.375c1.823-0.588,3.516-1.437,5.083-2.542
					c1.772-1.25,3.314-2.748,4.715-4.392c3.31-3.886,5.853-8.241,7.772-12.959C296.122,313.109,296.702,310.262,297.031,307.363z"/>
			</g>
			<g>
				<path class="st4" d="M206.501,356.225c-6.274-0.764-12.322-1.561-18.231-3.124c-1.408-0.372-2.739-1.043-4.094-1.604
					c-0.325-0.135-0.629-0.35-0.902-0.577c-0.529-0.439-0.666-0.962-0.456-1.534c0.215-0.584,0.761-0.941,1.456-0.864
					c0.496,0.055,0.992,0.172,1.469,0.321c2.957,0.922,6.004,1.384,9.056,1.849c4.828,0.735,9.673,1.33,14.547,1.6
					c5.266,0.292,10.539,0.431,15.809,0.652c1.971,0.083,3.941,0.194,5.909,0.326c0.42,0.028,0.858,0.145,1.239,0.324
					c0.629,0.295,0.931,1.063,0.766,1.736c-0.14,0.571-0.528,0.894-1.289,0.922c-1.935,0.07-3.871,0.118-5.808,0.141
					c-4.232,0.049-8.464,0.117-12.696,0.099C210.945,356.481,208.615,356.313,206.501,356.225z"/>
			</g>
			<g>
				<g>
					<path class="st11" d="M256.99,262.567c-0.262,0.344-0.467,0.734-0.779,0.998c-0.952,0.806-2.347,0.789-3.236-0.096
						c-1.072-1.066-1.954-2.291-2.522-3.706c-0.401-1.001-0.271-1.613,0.357-2.146c0.682-0.578,1.748-0.723,2.518-0.304
						c0.277,0.151,0.563,0.347,0.749,0.594c0.858,1.145,1.702,2.303,2.506,3.486C256.792,261.703,256.841,262.12,256.99,262.567z"/>
				</g>
				<g>
					<path class="st11" d="M214.13,250.114c1.702,0.183,2.364,1.376,1.638,2.848c-0.492,0.996-0.997,1.987-1.525,2.965
						c-0.693,1.283-2.583,1.655-3.74,0.756c-0.627-0.487-0.806-1.243-0.398-2.028c0.628-1.208,1.288-2.4,1.966-3.58
						C212.542,250.257,213.343,250.095,214.13,250.114z"/>
				</g>
				<g>
					<path class="st11" d="M196.07,241.315c-0.14,0.883-0.591,1.364-1.252,1.652c-0.733,0.319-1.517,0.377-2.135-0.161
						c-1.19-1.036-1.984-2.353-2.241-3.925c-0.161-0.986,0.362-1.707,1.335-2.051c0.89-0.315,1.573-0.113,2.136,0.712
						c0.625,0.915,1.22,1.853,1.79,2.803C195.898,240.672,195.979,241.067,196.07,241.315z"/>
				</g>
				<g>
					<path class="st11" d="M176.828,253.978c-0.135,1.26-1.652,2.304-2.979,1.931c-1.323-0.372-2.508-1.062-3.441-2.098
						c-0.545-0.605-0.542-1.224-0.025-1.843c0.621-0.743,1.476-1.168,2.386-0.878c1.182,0.377,2.305,0.958,3.423,1.514
						C176.713,252.863,176.901,253.387,176.828,253.978z"/>
				</g>
				<g>
					<path class="st11" d="M231.874,241.476c-0.667-0.038-1.094-0.406-1.348-1.032c-0.404-0.995-0.829-1.983-1.249-2.972
						c-0.399-0.94-0.303-1.478,0.365-2.002c0.759-0.595,1.799-0.643,2.478-0.035c0.366,0.328,0.673,0.748,0.917,1.178
						c0.371,0.652,0.624,1.372,0.998,2.023C234.987,240.286,233.177,241.666,231.874,241.476z"/>
				</g>
				<g>
					<path class="st11" d="M209.662,226.324c0.216-0.753,0.379-1.526,0.662-2.253c0.354-0.909,1.098-1.289,2.054-1.173
						c0.892,0.108,1.47,0.625,1.659,1.568c0.235,1.17-0.033,2.289-0.581,3.307c-0.492,0.915-1.577,1.204-2.631,0.84
						C209.905,228.294,209.568,227.597,209.662,226.324z"/>
				</g>
				<g>
					<path class="st11" d="M248.657,242.801c-0.39-0.159-0.816-0.263-1.162-0.49c-0.69-0.452-0.846-1.175-0.37-1.861
						c0.65-0.938,1.324-1.868,2.074-2.727c0.778-0.891,2.281-0.798,3.052,0.095c0.439,0.508,0.442,1.104,0.122,1.596
						c-0.639,0.983-1.341,1.933-2.096,2.83C249.9,242.694,249.289,242.788,248.657,242.801z"/>
				</g>
				<g>
					<path class="st11" d="M231.112,261.945c-1.376-0.064-1.926-0.608-2.037-1.584c-0.104-0.91,0.309-1.531,1.227-1.694
						c1.055-0.187,2.119-0.356,3.186-0.428c1.058-0.071,1.603,0.451,1.73,1.473c0.118,0.94-0.298,1.611-1.268,1.809
						C232.868,261.743,231.762,261.851,231.112,261.945z"/>
				</g>
				<g>
					<path class="st11" d="M193.475,256.325c0.086-1.203,0.4-1.669,1.126-1.897c0.796-0.249,1.632-0.045,2.071,0.714
						c0.441,0.762,0.76,1.613,1.01,2.461c0.205,0.695-0.165,1.245-0.783,1.611c-1.455,0.863-3.061,0.127-3.309-1.533
						C193.511,257.153,193.498,256.614,193.475,256.325z"/>
				</g>
			</g>
		</g>
	</g>
</g>
</svg>
